<?xml version="1.0" encoding="UTF-8" standalone="no"?>
<!DOCTYPE svg PUBLIC "-//W3C//DTD SVG 1.1//EN"
 "http://www.w3.org/Graphics/SVG/1.1/DTD/svg11.dtd">
<!-- Generated by graphviz version 2.38.0 (20140413.2041)
 -->
<!-- Title: %3 Pages: 1 -->
<svg width="2327pt" height="116pt"
 viewBox="0.00 0.00 2327.15 116.00" xmlns="http://www.w3.org/2000/svg" xmlns:xlink="http://www.w3.org/1999/xlink">
<g id="graph0" class="graph" transform="scale(1 1) rotate(0) translate(4 112)">
<title>%3</title>
<polygon fill="white" stroke="none" points="-4,4 -4,-112 2323.15,-112 2323.15,4 -4,4"/>
<!-- redis&#45;cli.c -->
<g id="node1" class="node"><title>redis&#45;cli.c</title>
<ellipse fill="#b2dfee" stroke="#b2dfee" cx="1201.15" cy="-18" rx="46.2923" ry="18"/>
<text text-anchor="middle" x="1201.15" y="-14.3" font-family="Times,serif" font-size="14.00">redis&#45;cli.c</text>
</g>
<!-- fmacros.h -->
<g id="node2" class="node"><title>fmacros.h</title>
<ellipse fill="#b2dfee" stroke="#b2dfee" cx="46.1459" cy="-90" rx="46.2923" ry="18"/>
<text text-anchor="middle" x="46.1459" y="-86.3" font-family="Times,serif" font-size="14.00">fmacros.h</text>
</g>
<!-- fmacros.h&#45;&gt;redis&#45;cli.c -->
<g id="edge1" class="edge"><title>fmacros.h&#45;&gt;redis&#45;cli.c</title>
<path fill="none" stroke="black" d="M79.2639,-77.2945C86.4003,-75.1877 93.9602,-73.2628 101.146,-72 304.875,-36.1973 950.061,-23.0538 1144.89,-19.8429"/>
<polygon fill="black" stroke="black" points="1144.97,-23.3421 1154.91,-19.68 1144.86,-16.3431 1144.97,-23.3421"/>
</g>
<!-- version.h -->
<g id="node3" class="node"><title>version.h</title>
<ellipse fill="#b2dfee" stroke="#b2dfee" cx="154.146" cy="-90" rx="43.5923" ry="18"/>
<text text-anchor="middle" x="154.146" y="-86.3" font-family="Times,serif" font-size="14.00">version.h</text>
</g>
<!-- version.h&#45;&gt;redis&#45;cli.c -->
<g id="edge2" class="edge"><title>version.h&#45;&gt;redis&#45;cli.c</title>
<path fill="none" stroke="black" d="M185.475,-77.4878C192.518,-75.3123 200.018,-73.3105 207.146,-72 389.193,-38.5289 962.577,-23.963 1144.9,-20.0998"/>
<polygon fill="black" stroke="black" points="1145.14,-23.5956 1155.07,-19.8869 1145,-16.5971 1145.14,-23.5956"/>
</g>
<!-- stdio.h -->
<g id="node4" class="node"><title>stdio.h</title>
<ellipse fill="#b2dfee" stroke="#b2dfee" cx="250.146" cy="-90" rx="34.394" ry="18"/>
<text text-anchor="start" x="231.646" y="-86.3" font-family="Times,serif" font-size="14.00">stdio.h</text>
</g>
<!-- stdio.h&#45;&gt;redis&#45;cli.c -->
<g id="edge3" class="edge"><title>stdio.h&#45;&gt;redis&#45;cli.c</title>
<path fill="none" stroke="black" d="M275.191,-77.5569C280.979,-75.3488 287.189,-73.3159 293.146,-72 456.81,-35.8486 973.43,-23.2085 1145.08,-19.946"/>
<polygon fill="black" stroke="black" points="1145.23,-23.4439 1155.16,-19.7577 1145.1,-16.4451 1145.23,-23.4439"/>
</g>
<!-- string.h -->
<g id="node5" class="node"><title>string.h</title>
<ellipse fill="#b2dfee" stroke="#b2dfee" cx="340.146" cy="-90" rx="37.8943" ry="18"/>
<text text-anchor="start" x="319.146" y="-86.3" font-family="Times,serif" font-size="14.00">string.h</text>
</g>
<!-- string.h&#45;&gt;redis&#45;cli.c -->
<g id="edge4" class="edge"><title>string.h&#45;&gt;redis&#45;cli.c</title>
<path fill="none" stroke="black" d="M367.605,-77.6063C373.926,-75.3955 380.691,-73.3492 387.146,-72 532.54,-41.6116 986.207,-25.4384 1145.32,-20.588"/>
<polygon fill="black" stroke="black" points="1145.48,-24.0849 1155.37,-20.2848 1145.27,-17.0881 1145.48,-24.0849"/>
</g>
<!-- stdlib.h -->
<g id="node6" class="node"><title>stdlib.h</title>
<ellipse fill="#b2dfee" stroke="#b2dfee" cx="433.146" cy="-90" rx="37.0935" ry="18"/>
<text text-anchor="start" x="412.646" y="-86.3" font-family="Times,serif" font-size="14.00">stdlib.h</text>
</g>
<!-- stdlib.h&#45;&gt;redis&#45;cli.c -->
<g id="edge5" class="edge"><title>stdlib.h&#45;&gt;redis&#45;cli.c</title>
<path fill="none" stroke="black" d="M460.501,-77.4656C466.548,-75.3198 472.989,-73.3358 479.146,-72 605.991,-44.4812 998.135,-26.8674 1144.92,-21.0888"/>
<polygon fill="black" stroke="black" points="1145.2,-24.5806 1155.06,-20.6932 1144.93,-17.5859 1145.2,-24.5806"/>
</g>
<!-- signal.h -->
<g id="node7" class="node"><title>signal.h</title>
<ellipse fill="#b2dfee" stroke="#b2dfee" cx="526.146" cy="-90" rx="38.1938" ry="18"/>
<text text-anchor="start" x="504.646" y="-86.3" font-family="Times,serif" font-size="14.00">signal.h</text>
</g>
<!-- signal.h&#45;&gt;redis&#45;cli.c -->
<g id="edge6" class="edge"><title>signal.h&#45;&gt;redis&#45;cli.c</title>
<path fill="none" stroke="black" d="M554.124,-77.5234C560.3,-75.3739 566.874,-73.3739 573.146,-72 780.229,-26.6418 1033.57,-19.5826 1144.54,-18.8315"/>
<polygon fill="black" stroke="black" points="1144.85,-22.33 1154.83,-18.7774 1144.81,-15.3301 1144.85,-22.33"/>
</g>
<!-- unistd.h -->
<g id="node8" class="node"><title>unistd.h</title>
<ellipse fill="#b2dfee" stroke="#b2dfee" cx="621.146" cy="-90" rx="38.9931" ry="18"/>
<text text-anchor="start" x="599.146" y="-86.3" font-family="Times,serif" font-size="14.00">unistd.h</text>
</g>
<!-- unistd.h&#45;&gt;redis&#45;cli.c -->
<g id="edge7" class="edge"><title>unistd.h&#45;&gt;redis&#45;cli.c</title>
<path fill="none" stroke="black" d="M649.752,-77.6034C656.057,-75.449 662.761,-73.4266 669.146,-72 839.576,-33.9174 1046.85,-23.1844 1144.75,-20.1702"/>
<polygon fill="black" stroke="black" points="1145.12,-23.6611 1155.01,-19.8705 1144.91,-16.6641 1145.12,-23.6611"/>
</g>
<!-- time.h -->
<g id="node9" class="node"><title>time.h</title>
<ellipse fill="#b2dfee" stroke="#b2dfee" cx="712.146" cy="-90" rx="33.5952" ry="18"/>
<text text-anchor="start" x="694.146" y="-86.3" font-family="Times,serif" font-size="14.00">time.h</text>
</g>
<!-- time.h&#45;&gt;redis&#45;cli.c -->
<g id="edge8" class="edge"><title>time.h&#45;&gt;redis&#45;cli.c</title>
<path fill="none" stroke="black" d="M737.254,-77.821C743.038,-75.5991 749.231,-73.4939 755.146,-72 892.633,-37.2766 1059.85,-25.1409 1145.18,-21.024"/>
<polygon fill="black" stroke="black" points="1145.35,-24.5202 1155.17,-20.5607 1145.02,-17.5277 1145.35,-24.5202"/>
</g>
<!-- ctype.h -->
<g id="node10" class="node"><title>ctype.h</title>
<ellipse fill="#b2dfee" stroke="#b2dfee" cx="800.146" cy="-90" rx="36.2938" ry="18"/>
<text text-anchor="start" x="780.146" y="-86.3" font-family="Times,serif" font-size="14.00">ctype.h</text>
</g>
<!-- ctype.h&#45;&gt;redis&#45;cli.c -->
<g id="edge9" class="edge"><title>ctype.h&#45;&gt;redis&#45;cli.c</title>
<path fill="none" stroke="black" d="M827.583,-77.8139C833.625,-75.6463 840.043,-73.5654 846.146,-72 950.709,-45.1781 1076.31,-30.3874 1146.6,-23.627"/>
<polygon fill="black" stroke="black" points="1146.94,-27.1112 1156.56,-22.6873 1146.28,-20.1421 1146.94,-27.1112"/>
</g>
<!-- errno.h -->
<g id="node11" class="node"><title>errno.h</title>
<ellipse fill="#b2dfee" stroke="#b2dfee" cx="891.146" cy="-90" rx="36.2938" ry="18"/>
<text text-anchor="start" x="871.146" y="-86.3" font-family="Times,serif" font-size="14.00">errno.h</text>
</g>
<!-- errno.h&#45;&gt;redis&#45;cli.c -->
<g id="edge10" class="edge"><title>errno.h&#45;&gt;redis&#45;cli.c</title>
<path fill="none" stroke="black" d="M918.512,-77.8469C924.278,-75.7276 930.366,-73.6577 936.146,-72 1008.81,-51.1604 1094.97,-35.5591 1148.87,-26.8569"/>
<polygon fill="black" stroke="black" points="1149.55,-30.2925 1158.87,-25.2608 1148.44,-23.3799 1149.55,-30.2925"/>
</g>
<!-- sys/stat.h -->
<g id="node12" class="node"><title>sys/stat.h</title>
<ellipse fill="#b2dfee" stroke="#b2dfee" cx="989.146" cy="-90" rx="43.5923" ry="18"/>
<text text-anchor="start" x="963.646" y="-86.3" font-family="Times,serif" font-size="14.00">sys/stat.h</text>
</g>
<!-- sys/stat.h&#45;&gt;redis&#45;cli.c -->
<g id="edge11" class="edge"><title>sys/stat.h&#45;&gt;redis&#45;cli.c</title>
<path fill="none" stroke="black" d="M1022.27,-78.0625C1058.74,-66.0201 1117.52,-46.6118 1157.67,-33.3542"/>
<polygon fill="black" stroke="black" points="1158.8,-36.6669 1167.2,-30.2079 1156.61,-30.0198 1158.8,-36.6669"/>
</g>
<!-- sys/time.h -->
<g id="node13" class="node"><title>sys/time.h</title>
<ellipse fill="#b2dfee" stroke="#b2dfee" cx="1098.15" cy="-90" rx="47.3916" ry="18"/>
<text text-anchor="start" x="1069.65" y="-86.3" font-family="Times,serif" font-size="14.00">sys/time.h</text>
</g>
<!-- sys/time.h&#45;&gt;redis&#45;cli.c -->
<g id="edge12" class="edge"><title>sys/time.h&#45;&gt;redis&#45;cli.c</title>
<path fill="none" stroke="black" d="M1120.24,-73.9832C1134.91,-64.018 1154.35,-50.8024 1170.5,-39.8252"/>
<polygon fill="black" stroke="black" points="1172.78,-42.5076 1179.09,-33.9919 1168.85,-36.7181 1172.78,-42.5076"/>
</g>
<!-- assert.h -->
<g id="node14" class="node"><title>assert.h</title>
<ellipse fill="#b2dfee" stroke="#b2dfee" cx="1201.15" cy="-90" rx="37.8943" ry="18"/>
<text text-anchor="start" x="1180.15" y="-86.3" font-family="Times,serif" font-size="14.00">assert.h</text>
</g>
<!-- assert.h&#45;&gt;redis&#45;cli.c -->
<g id="edge13" class="edge"><title>assert.h&#45;&gt;redis&#45;cli.c</title>
<path fill="none" stroke="black" d="M1201.15,-71.6966C1201.15,-63.9827 1201.15,-54.7125 1201.15,-46.1124"/>
<polygon fill="black" stroke="black" points="1204.65,-46.1043 1201.15,-36.1043 1197.65,-46.1044 1204.65,-46.1043"/>
</g>
<!-- fcntl.h -->
<g id="node15" class="node"><title>fcntl.h</title>
<ellipse fill="#b2dfee" stroke="#b2dfee" cx="1290.15" cy="-90" rx="33.5952" ry="18"/>
<text text-anchor="start" x="1272.15" y="-86.3" font-family="Times,serif" font-size="14.00">fcntl.h</text>
</g>
<!-- fcntl.h&#45;&gt;redis&#45;cli.c -->
<g id="edge14" class="edge"><title>fcntl.h&#45;&gt;redis&#45;cli.c</title>
<path fill="none" stroke="black" d="M1271.71,-74.496C1259.28,-64.721 1242.66,-51.6529 1228.68,-40.6534"/>
<polygon fill="black" stroke="black" points="1230.82,-37.8877 1220.8,-34.4566 1226.49,-43.3898 1230.82,-37.8877"/>
</g>
<!-- limits.h -->
<g id="node16" class="node"><title>limits.h</title>
<ellipse fill="#b2dfee" stroke="#b2dfee" cx="1380.15" cy="-90" rx="38.1938" ry="18"/>
<text text-anchor="start" x="1358.65" y="-86.3" font-family="Times,serif" font-size="14.00">limits.h</text>
</g>
<!-- limits.h&#45;&gt;redis&#45;cli.c -->
<g id="edge15" class="edge"><title>limits.h&#45;&gt;redis&#45;cli.c</title>
<path fill="none" stroke="black" d="M1351.39,-77.7533C1321.79,-66.1807 1275.43,-48.0482 1242.03,-34.9872"/>
<polygon fill="black" stroke="black" points="1243.13,-31.6613 1232.54,-31.2788 1240.58,-38.1805 1243.13,-31.6613"/>
</g>
<!-- math.h -->
<g id="node17" class="node"><title>math.h</title>
<ellipse fill="#b2dfee" stroke="#b2dfee" cx="1472.15" cy="-90" rx="35.9954" ry="18"/>
<text text-anchor="start" x="1452.65" y="-86.3" font-family="Times,serif" font-size="14.00">math.h</text>
</g>
<!-- math.h&#45;&gt;redis&#45;cli.c -->
<g id="edge16" class="edge"><title>math.h&#45;&gt;redis&#45;cli.c</title>
<path fill="none" stroke="black" d="M1444.74,-77.9941C1438.97,-75.8642 1432.9,-73.7527 1427.15,-72 1367.65,-53.8711 1297.76,-38.3387 1251.62,-28.8606"/>
<polygon fill="black" stroke="black" points="1252.07,-25.381 1241.58,-26.8155 1250.68,-32.2403 1252.07,-25.381"/>
</g>
<!-- hiredis.h -->
<g id="node18" class="node"><title>hiredis.h</title>
<ellipse fill="#b2dfee" stroke="#b2dfee" cx="1567.15" cy="-90" rx="41.6928" ry="18"/>
<text text-anchor="start" x="1543.15" y="-86.3" font-family="Times,serif" font-size="14.00">hiredis.h</text>
</g>
<!-- hiredis.h&#45;&gt;redis&#45;cli.c -->
<g id="edge17" class="edge"><title>hiredis.h&#45;&gt;redis&#45;cli.c</title>
<path fill="none" stroke="black" d="M1536.44,-77.6907C1530.11,-75.6076 1523.46,-73.5913 1517.15,-72 1426.32,-49.1036 1318.27,-33.3985 1254.95,-25.3298"/>
<polygon fill="black" stroke="black" points="1255.15,-21.8286 1244.8,-24.0533 1254.28,-28.7739 1255.15,-21.8286"/>
</g>
<!-- sds.h -->
<g id="node19" class="node"><title>sds.h</title>
<ellipse fill="#b2dfee" stroke="#b2dfee" cx="1655.15" cy="-90" rx="28.6953" ry="18"/>
<text text-anchor="start" x="1641.15" y="-86.3" font-family="Times,serif" font-size="14.00">sds.h</text>
</g>
<!-- sds.h&#45;&gt;redis&#45;cli.c -->
<g id="edge18" class="edge"><title>sds.h&#45;&gt;redis&#45;cli.c</title>
<path fill="none" stroke="black" d="M1633.65,-77.7963C1628.67,-75.5757 1623.31,-73.4773 1618.15,-72 1492.32,-36.0144 1338.15,-24.4375 1257.09,-20.7309"/>
<polygon fill="black" stroke="black" points="1257.24,-17.2342 1247.1,-20.2972 1256.94,-24.2276 1257.24,-17.2342"/>
</g>
<!-- dict.h -->
<g id="node20" class="node"><title>dict.h</title>
<ellipse fill="#b2dfee" stroke="#b2dfee" cx="1732.15" cy="-90" rx="30.5947" ry="18"/>
<text text-anchor="middle" x="1732.15" y="-86.3" font-family="Times,serif" font-size="14.00">dict.h</text>
</g>
<!-- dict.h&#45;&gt;redis&#45;cli.c -->
<g id="edge19" class="edge"><title>dict.h&#45;&gt;redis&#45;cli.c</title>
<path fill="none" stroke="black" d="M1709.46,-77.7391C1704.21,-75.5215 1698.57,-73.4387 1693.15,-72 1539.22,-31.1873 1350.27,-21.6903 1257.7,-19.5567"/>
<polygon fill="black" stroke="black" points="1257.51,-16.052 1247.44,-19.3415 1257.36,-23.0504 1257.51,-16.052"/>
</g>
<!-- adlist.h -->
<g id="node21" class="node"><title>adlist.h</title>
<ellipse fill="#b2dfee" stroke="#b2dfee" cx="1817.15" cy="-90" rx="36.2938" ry="18"/>
<text text-anchor="middle" x="1817.15" y="-86.3" font-family="Times,serif" font-size="14.00">adlist.h</text>
</g>
<!-- adlist.h&#45;&gt;redis&#45;cli.c -->
<g id="edge20" class="edge"><title>adlist.h&#45;&gt;redis&#45;cli.c</title>
<path fill="none" stroke="black" d="M1790.38,-77.548C1784.47,-75.3971 1778.17,-73.3901 1772.15,-72 1587.15,-29.2938 1360.92,-20.803 1257.54,-19.2501"/>
<polygon fill="black" stroke="black" points="1257.37,-15.7477 1247.33,-19.1135 1257.28,-22.747 1257.37,-15.7477"/>
</g>
<!-- zmalloc.h -->
<g id="node22" class="node"><title>zmalloc.h</title>
<ellipse fill="#b2dfee" stroke="#b2dfee" cx="1918.15" cy="-90" rx="46.2923" ry="18"/>
<text text-anchor="middle" x="1918.15" y="-86.3" font-family="Times,serif" font-size="14.00">zmalloc.h</text>
</g>
<!-- zmalloc.h&#45;&gt;redis&#45;cli.c -->
<g id="edge21" class="edge"><title>zmalloc.h&#45;&gt;redis&#45;cli.c</title>
<path fill="none" stroke="black" d="M1884.68,-77.5638C1877.33,-75.4119 1869.53,-73.4005 1862.15,-72 1641.13,-30.0964 1372.41,-21.2836 1257.57,-19.4593"/>
<polygon fill="black" stroke="black" points="1257.33,-15.9554 1247.28,-19.3081 1257.22,-22.9546 1257.33,-15.9554"/>
</g>
<!-- linenoise.h -->
<g id="node23" class="node"><title>linenoise.h</title>
<ellipse fill="#b2dfee" stroke="#b2dfee" cx="2032.15" cy="-90" rx="49.2915" ry="18"/>
<text text-anchor="middle" x="2032.15" y="-86.3" font-family="Times,serif" font-size="14.00">linenoise.h</text>
</g>
<!-- linenoise.h&#45;&gt;redis&#45;cli.c -->
<g id="edge22" class="edge"><title>linenoise.h&#45;&gt;redis&#45;cli.c</title>
<path fill="none" stroke="black" d="M1996.55,-77.4302C1988.9,-75.3143 1980.81,-73.3513 1973.15,-72 1708.7,-25.3687 1386.57,-19.2453 1258.05,-18.8015"/>
<polygon fill="black" stroke="black" points="1257.69,-15.3007 1247.68,-18.7768 1257.67,-22.3007 1257.69,-15.3007"/>
</g>
<!-- help.h -->
<g id="node24" class="node"><title>help.h</title>
<ellipse fill="#b2dfee" stroke="#b2dfee" cx="2132.15" cy="-90" rx="32.4942" ry="18"/>
<text text-anchor="middle" x="2132.15" y="-86.3" font-family="Times,serif" font-size="14.00">help.h</text>
</g>
<!-- help.h&#45;&gt;redis&#45;cli.c -->
<g id="edge23" class="edge"><title>help.h&#45;&gt;redis&#45;cli.c</title>
<path fill="none" stroke="black" d="M2108.15,-77.7329C2102.37,-75.4575 2096.13,-73.3514 2090.15,-72 1930.51,-35.9545 1426.99,-23.2812 1257.47,-19.9741"/>
<polygon fill="black" stroke="black" points="1257.34,-16.4709 1247.27,-19.7785 1257.2,-23.4696 1257.34,-16.4709"/>
</g>
<!-- anet.h -->
<g id="node25" class="node"><title>anet.h</title>
<ellipse fill="#b2dfee" stroke="#b2dfee" cx="2215.15" cy="-90" rx="32.4942" ry="18"/>
<text text-anchor="middle" x="2215.15" y="-86.3" font-family="Times,serif" font-size="14.00">anet.h</text>
</g>
<!-- anet.h&#45;&gt;redis&#45;cli.c -->
<g id="edge24" class="edge"><title>anet.h&#45;&gt;redis&#45;cli.c</title>
<path fill="none" stroke="black" d="M2191.15,-77.7109C2185.37,-75.4364 2179.13,-73.3362 2173.15,-72 1996.78,-32.6466 1436.8,-22.0571 1257.18,-19.6367"/>
<polygon fill="black" stroke="black" points="1257.2,-16.1368 1247.15,-19.5049 1257.11,-23.1362 1257.2,-16.1368"/>
</g>
<!-- ae.h -->
<g id="node26" class="node"><title>ae.h</title>
<ellipse fill="#b2dfee" stroke="#b2dfee" cx="2292.15" cy="-90" rx="27" ry="18"/>
<text text-anchor="middle" x="2292.15" y="-86.3" font-family="Times,serif" font-size="14.00">ae.h</text>
</g>
<!-- ae.h&#45;&gt;redis&#45;cli.c -->
<g id="edge25" class="edge"><title>ae.h&#45;&gt;redis&#45;cli.c</title>
<path fill="none" stroke="black" d="M2272.1,-77.8499C2267.04,-75.5094 2261.51,-73.3449 2256.15,-72 2064.45,-23.9306 1447.71,-19.2345 1257.52,-18.9509"/>
<polygon fill="black" stroke="black" points="1257.47,-15.451 1247.46,-18.9395 1257.46,-22.451 1257.47,-15.451"/>
</g>
</g>
</svg>
